<svg width="177" height="177" viewBox="0 0 177 177" fill="none" xmlns="http://www.w3.org/2000/svg">
<rect width="177" height="177" fill="#818181"/>
<path d="M98.329 63.6857L95.6713 105.145L90.5883 106.05L82.0324 86.6921L49.9864 140.225L45.4258 137.495L82.7443 75.1546L91.0612 93.9713L93.0246 63.3457L98.329 63.6857Z" fill="#00FF4C"/>
<path d="M103.334 44.3122C108.672 40.5606 114.188 39.4405 119.528 40.286C124.76 41.1145 129.57 43.7851 133.758 47.1658C142.101 53.9003 148.742 64.0726 152.339 71.3349L153.652 73.9871L127.293 91.0719L116.31 79.1807L122.884 132.717L66.7086 141.826V80.3497L53.534 100.162L22.2969 79.0014L68.3379 42.4441L70.421 44.8614C72.2779 47.0161 76.2563 49.8604 81.8468 50.6903C87.3302 51.5043 94.6454 50.4194 103.334 44.3122ZM118.489 46.8484C114.899 46.2801 111.119 46.9617 107.155 49.748C97.2403 56.7164 88.2329 58.3555 80.871 57.2626C75.2482 56.4279 70.7458 54.0212 67.6831 51.4474L33.5164 78.5765L51.712 90.9025L73.3527 58.3591V134.018L115.51 127.181L107.202 59.5281L128.376 82.4522L145.016 71.6671C141.497 65.2676 136.006 57.5185 129.585 52.3358C125.939 49.3924 122.186 47.4338 118.489 46.8484Z" fill="white"/>
<path d="M100.989 22.2248L98.3318 63.6842L93.0273 63.3442L95.685 21.8848L100.989 22.2248Z" fill="#00FF4C"/>
</svg>
