<svg width="20" height="20" viewBox="0 0 20 20" fill="none" xmlns="http://www.w3.org/2000/svg">
<path d="M0 10C0 6.68629 2.68629 4 6 4C6.36819 4 6.66667 4.29848 6.66667 4.66667C6.66667 5.03486 6.36819 5.33333 6 5.33333C3.42267 5.33333 1.33333 7.42267 1.33333 10C1.33333 12.5773 3.42267 14.6667 6 14.6667C6.36819 14.6667 6.66667 14.9651 6.66667 15.3333C6.66667 15.7015 6.36819 16 6 16C2.68629 16 0 13.3137 0 10Z" fill="white"/>
<path d="M18.6666 10C18.6666 7.42267 16.5772 5.33333 13.9999 5.33333C13.6317 5.33333 13.3333 5.03486 13.3333 4.66667C13.3333 4.29848 13.6317 4 13.9999 4C17.3136 4 19.9999 6.68629 19.9999 10C19.9999 13.3137 17.3136 16 13.9999 16C13.6317 16 13.3333 15.7015 13.3333 15.3333C13.3333 14.9651 13.6317 14.6667 13.9999 14.6667C16.5772 14.6667 18.6666 12.5773 18.6666 10Z" fill="white"/>
<path d="M11.9999 9.3335C12.3681 9.3335 12.6666 9.63197 12.6666 10.0002C12.6666 10.3684 12.3681 10.6668 11.9999 10.6668H7.99992C7.63173 10.6668 7.33325 10.3684 7.33325 10.0002C7.33325 9.63197 7.63173 9.3335 7.99992 9.3335H11.9999Z" fill="white"/>
</svg>
