<svg width="20" height="20" viewBox="0 0 20 20" fill="none" xmlns="http://www.w3.org/2000/svg">
<path d="M2.66675 13.3332C2.66675 12.965 2.96522 12.6665 3.33341 12.6665C3.7016 12.6665 4.00008 12.965 4.00008 13.3332V15.9998H16.0001V13.3332C16.0001 12.965 16.2986 12.6665 16.6667 12.6665C17.0349 12.6665 17.3334 12.965 17.3334 13.3332V17.3332H2.66675V13.3332Z" fill="white"/>
<path d="M9.33351 3.33317C9.33351 2.96498 9.63199 2.6665 10.0002 2.6665C10.3684 2.6665 10.6668 2.96498 10.6668 3.33317V11.7238L13.7717 8.61898C14.032 8.35883 14.4541 8.35869 14.7144 8.61898C14.9747 8.87926 14.9745 9.30132 14.7144 9.56169L10.4715 13.8045C10.2112 14.0649 9.78917 14.0649 9.52882 13.8045L5.28598 9.56169C5.02583 9.30132 5.0257 8.87926 5.28598 8.61898C5.54627 8.35869 5.96833 8.35883 6.22869 8.61898L9.33351 11.7238V3.33317Z" fill="white"/>
</svg>
